<svg width="118" height="109" viewBox="0 0 118 109" fill="none" xmlns="http://www.w3.org/2000/svg">
<path d="M0.872026 45.8091C4.08847 26.6361 16.3546 4.19288 37.2206 0.474971C48.5327 -1.54681 59.3405 3.33804 69.644 7.25948C87.0074 13.9083 111.894 16.7578 117.1 38.1969C117.739 40.8904 118.041 43.6523 118 46.4197C117.673 76.8143 88.343 105.743 58.6045 108.729C57.6096 108.837 56.6011 108.905 55.5789 108.946C41.3911 109.57 26.113 104.563 15.8776 94.5897C4.81081 83.8431 -0.777084 67.8452 0.0815434 52.6343C0.215503 50.3462 0.479419 48.0675 0.872026 45.8091Z" fill="#0163C3"/>
<path d="M34.9857 49.0654V45.3882C34.9857 42.4844 32.955 40.7476 29.4387 40.7476C25.9224 40.7476 23.7963 42.5116 23.7963 45.3882V63.8692C23.7963 66.7594 25.8815 68.5098 29.3978 68.5098C32.9141 68.5098 34.9993 66.7594 34.9993 63.8692V59.5407H29.2206V53.3397H41.7457V63.7742C41.7457 70.3416 37.071 74.7651 29.4796 74.7651C21.8882 74.7651 17.0908 70.3145 17.0908 63.7742V45.4561C17.0908 38.9701 21.7928 34.6008 29.3569 34.6008C36.921 34.6008 41.7184 39.0379 41.7184 45.5239V49.1333L34.9857 49.0654Z" fill="white"/>
<path d="M64.6424 74.0189L59.586 59.0929H53.7664V74.0189H46.9519V35.2793H59.218C66.0325 35.2793 70.4211 39.35 70.4211 45.3882V48.9433C70.4792 50.6051 70.0983 52.2529 69.3162 53.7221C68.5341 55.1913 67.3783 56.4304 65.9644 57.3154L71.634 74.0053L64.6424 74.0189ZM53.7392 52.8376H59.6814C62.4072 52.8376 63.7701 51.4807 63.7701 49.174V45.1847C63.7701 42.8372 62.4072 41.5346 59.6814 41.5346H53.6846L53.7392 52.8376Z" fill="white"/>
<path d="M88.1252 34.5332C80.3839 34.5332 75.7365 39.011 75.7365 45.5648V63.7745C75.7365 70.2876 80.3976 74.7111 88.1252 74.7111C95.8529 74.7111 100.528 70.274 100.528 63.7745V45.5648C100.541 39.011 95.8665 34.5332 88.1252 34.5332ZM82.4692 45.4563C82.4692 42.4982 84.0638 40.7614 88.1252 40.7614C89.3491 40.7106 90.5677 40.9477 91.6824 41.4534L82.4692 61.0606V45.4563ZM93.7813 63.883C93.7813 66.7868 92.2003 68.5236 88.1252 68.5236C86.9294 68.5714 85.739 68.339 84.6498 67.8452L93.8085 48.3872L93.7813 63.883Z" fill="white"/>
</svg>
