<svg xmlns="http://www.w3.org/2000/svg" viewBox="0 0 906.8 103.9" enable-background="new 0 0 906.8 103.9"><style type="text/css">.st0{fill:#C7202F;} .st1{fill:#FFFFFF;}</style><path d="M466.9 1.1h55.7c.8 0 1.4.6 1.4 1.4V95.2c0 .3-.4.5-.7.4L504.8 83h-37.9c-.8 0-1.4-.6-1.4-1.4V2.5c0-.8.6-1.4 1.4-1.4z" class="st0"/><path d="M494.6 42.2l-18.1-11.6c-.3-.2-.7 0-.7.4v23.2c0 .3.4.5.7.4L494.6 43c.2-.2.2-.6 0-.8zM513.3 42.1l-17.7-11.3c-.4-.3-.9 0-.9.5v22.6c0 .5.5.8.9.5l17.7-11.3c.4-.3.4-.8 0-1zM579.8 83h-19.5c-.2 0-.5-.2-.5-.4l-25-80.5c-.1-.5.2-.9.7-.9h17.2c.2 0 .5.2.5.4l16.9 57.1h.2l17.2-57.1c.1-.2.3-.4.5-.4h17.4c.4 0 .7.4.5.7l-25.6 80.7c0 .2-.2.4-.5.4zM626 14.5h-15.1c-.3 0-.6-.3-.6-.6V1.6c0-.3.3-.6.6-.6H626c.3 0 .6.3.6.6v12.3c0 .3-.3.6-.6.6zm-15.3 16.4l15.1-9.3c.4-.2.8.1.8.5v60.1c0 .4-.3.7-.7.7H611c-.4 0-.7-.3-.7-.7V31.4c0-.2.2-.4.4-.5zM675.6 44c-.3 0-.6-.3-.7-.6-1.2-6.2-5.4-9-11.9-9-10.4 0-13.9 9.9-13.9 18.6 0 8.5 3.3 18.1 13.5 18.1 7.4 0 11.7-4 12.9-10.8.1-.3.4-.6.7-.6h14.3c.4 0 .8.4.7.8-2.3 15.1-13.1 23.1-28.4 23.1-17.9 0-29.9-12.2-29.9-29.9 0-18.4 11-32 30.3-32 13.7 0 26.4 7.1 27.8 21.6 0 .4-.3.8-.7.8l-14.7-.1zM767.2 21.6c18.7 0 30.9 12.5 30.9 31.3 0 18.7-12.1 30.6-30.8 30.6-18.6 0-30.5-11.9-30.5-30.6-.1-18.8 11.8-31.3 30.4-31.3zm.1 49.6c11.1 0 14.4-8.9 14.4-18.2 0-9.5-3.3-18.3-14.4-18.3-11 0-14.3 8.9-14.3 18.3 0 9.3 3.3 18.2 14.3 18.2zM720.6 21.8h10.8c.3 0 .6.3.6.6v11.9c0 .3-.3.6-.6.6h-10.8c-.3 0-.6.3-.6.6v33.1c0 .2.2.4.4.4 4.4.2 6.3 0 11-.3.3 0 .6.2.6.6v12.8c0 .3-.2.5-.5.6-2.7.4-6 .5-9.1.5-10 0-18.7-2.3-18.7-14.1V35.4c0-.3-.3-.6-.6-.6h-8.5c-.3 0-.6-.3-.6-.6V22.3c0-.3.3-.6.6-.6h8.5c.3 0 .6-.3.6-.6V10.9c0-.2.1-.4.3-.5l15.2-9.3c.4-.2.8.1.8.5v19.5c0 .4.3.7.6.7zM880.9 89.7c-3.6 9.7-11.6 13.8-22.4 13.8-3.2 0-1.9 0-5.1-.1-.3 0-.5-.2-.5-.5V89.5c0-.3.2-.5.4-.5 3 0 3.4 0 6.1 0 5.8-.1 7.7-8.4 5.8-13.2l-19.9-53.3c-.2-.5.2-1 .7-1h16.4c.3 0 .6.2.7.5l12.4 38.4h.2l12-38.4c.1-.3.4-.5.7-.5h15.9c.2 0 .4.2.3.5l-23.7 67.7zM804.4 21.8h14.2c.4 0 .6.3.7.8 0 0 0 6.4 0 6.7 0 .2.3.2.3 0 1.9-4.2 3.8-7.3 17.1-7.4 1 0 2.1-.1 3 .2.3.1.5.4.5.7v14c0 .4-.3.7-.7.7-1.7 0-3.3 0-4.9 0-12-.2-14.6 10.5-14.6 18.9v25.8c0 .4-.3.7-.7.7h-15c-.3 0-.6-.2-.6-.6l-.2-59.8c0-.5.4-.7.9-.7zM111.8 82.2c0 .4-.3.7-.7.7-2.9.1-13.9 0-13.9 0-.6 0-.8-.2-.8-.8 0-1 0-2.3 0-3.4 0-.6-.7-.9-1.2-.5-5.1 4.6-11.5 5.2-18.2 5.2-11.3 0-19.9-4.5-19.9-16.8 0-13.5 10.2-16.7 20.3-18.1 10-1.5 18.2-1.2 18.2-7.8 0-7-4.8-8.1-10.6-8.1-6 0-9.7 3.8-9.6 8.3 0 .4-.3.7-.7.7h-15c-.4 0-.7-.3-.7-.7C59 28 72.7 21.7 85.8 21.7c11.9 0 26.2 3.5 26 17v43.5zm-16.3-27c0-.6-.6-.9-1.1-.7-3 1.7-6.8 1.9-11.3 2.7-5.1 1-9.7 2.8-9.7 8.8 0 6.1 4.7 7.6 10 7.6 12.8 0 12.1-10.2 12.1-13.7v-4.7zM1.9 1.1h64.5c.4 0 .7.3.7.7v13.7c0 .4-.3.7-.7.7h-22c-.4 0-.7.3-.7.7v65.3c0 .4-.3.7-.7.7H26.4c-.4 0-.7-.3-.7-.7V16.9c0-.4-.3-.7-.7-.7H1.9c-.4 0-.7-.3-.7-.7V1.8c-.1-.4.3-.7.7-.7zM238.6 57.1c-.4 0-.8.4-.7.8.7 9.8 5.7 14.3 14.6 14.3 6.3 0 10.8-3.7 12.1-7.2.1-.3.4-.5.7-.5h13.4c.5 0 .9.5.7 1-4.7 13.4-14.4 17.9-27.5 17.9-18.8 0-30.4-11.8-30.4-30.2 0-17.8 12.3-31.4 30.4-31.4 20 0 29.8 16.6 28.9 34.6 0 .4-.3.7-.7.7h-41.5zm25.1-10.3c.4 0 .6-.3.6-.7-1.6-7.9-5.2-12-12.9-12-9.9 0-13.1 7.4-13.5 12 0 .3.2.6.6.6h25.2zM308.7 21.7h10.8c.3 0 .6.3.6.6v12.1c0 .3-.3.6-.6.6h-10.8c-.3 0-.6.3-.6.6v33.1c0 .2.2.4.4.4 4.4.2 6.3 0 11-.3.3 0 .6.2.6.6v12.8c0 .3-.2.5-.5.6-2.7.4-6 .5-9.1.5-10 0-18.7-2.3-18.7-14.1V35.5c0-.3-.3-.6-.6-.6h-8.5c-.3 0-.6-.3-.6-.6v-12c0-.3.3-.6.6-.6h8.5c.3 0 .6-.3.6-.6v-10c0-.2.1-.4.3-.5l15.2-9.3c.4-.2.8.1.8.5v19.3c0 .4.3.6.6.6zM340.3 57c-.4 0-.8.4-.7.8.7 9.8 5.7 14.3 14.6 14.3 6.3 0 10.8-3.7 12.1-7.2.1-.3.4-.5.7-.5h13.4c.5 0 .9.5.7 1-4.7 13.4-14.4 17.9-27.5 17.9-18.8 0-30.4-11.8-30.4-30.2 0-17.8 12.3-31.4 30.4-31.4 20 0 29.8 16.6 28.9 34.6 0 .4-.3.7-.7.7h-41.5zm25.1-10.3c.4 0 .6-.3.6-.7-1.6-7.9-5.2-12-12.9-12-9.9 0-13.1 7.4-13.5 12 0 .3.2.6.6.6h25.2zM216.4 76.9c0 9.7-2.7 26.8-29.6 26.8-11.3 0-25.7-5.3-26.9-18.2 0-.4.3-.8.7-.8h14.6c.3 0 .6.2.7.5 1.6 5.7 6.8 7.7 12.3 7.5 10-.3 13.1-6.6 13-15.1v-7.1h-.2c-1.3 2.5-6.9 8.7-17.2 8.7-18.2 0-25.5-13.2-25.3-29.4.2-17.3 9.4-29.3 25.7-29.4 10.2-.1 15.8 7 16.8 9h.2l-.1-6.9c0-.4.3-.7.7-.7h13.8c.4 0 .7.3.7.7 0 6.4.1 54.4.1 54.4zm-15.2-27.1c0-11-5.3-17.2-12.5-17.3-9.1-.2-14.8 5.1-14.7 17.3.1 10.9 5.1 17.3 14.6 17.3 7.1.1 12.6-6.4 12.6-17.3zM120 21.8h14.2c.4 0 .6.3.7.8 0 0 0 6.4 0 6.7 0 .2.3.2.3 0 1.9-4.2 3.8-7.3 17.1-7.4 1 0 2.1-.1 3 .2.3.1.5.4.5.7v14c0 .4-.3.7-.7.7-1.7 0-3.3 0-4.9 0-11.9 0-14.6 10.6-14.6 19.1v25.8c0 .4-.3.7-.7.7h-15c-.3 0-.6-.2-.6-.6l-.2-59.8c0-.7.4-.9.9-.9zM432.7 77.9h-.1c-3 5.4-12.2 6.8-18.1 6.8-16.2-.1-25.5-15.5-25.5-30.5 0-16.5 7.8-32.4 25.4-32.5 9.8-.1 14.8 4.3 18.2 9.4h.2l-.1-19.3c0-.7.7-1.2 1.3-1.6l13.7-8.9c.1-.1.3-.1.4-.1.6.1 1.1.6 1.1 1.3L449 81c-.1 1.4-.4 1.9-1.9 1.9h-12.6c-1.5 0-1.8-.4-1.8-1.9v-3.1zm-12.5-43.5c-8.7-.1-15.5 5.2-15.5 19.9 0 11.1 5.9 18.3 15.5 18.3 8.6 0 13-9.4 13-18.4 0-12.9-4.9-19.8-13-19.8z" class="st1"/></svg>